<mxfile host="app.diagrams.net" agent="Mozilla/5.0 (Macintosh; Intel Mac OS X 10_15_7) AppleWebKit/537.36 (KHTML, like Gecko) Chrome/135.0.0.0 Safari/537.36" version="26.2.14">
  <diagram id="C5RBs43oDa-KdzZeNtuy" name="Page-1">
    <mxGraphModel dx="3440" dy="1611" grid="1" gridSize="10" guides="1" tooltips="1" connect="1" arrows="1" fold="1" page="1" pageScale="1" pageWidth="827" pageHeight="1169" math="0" shadow="0">
      <root>
        <mxCell id="WIyWlLk6GJQsqaUBKTNV-0" />
        <mxCell id="WIyWlLk6GJQsqaUBKTNV-1" parent="WIyWlLk6GJQsqaUBKTNV-0" />
        <mxCell id="gjeJiGYiuu_HesW52Vty-44" style="edgeStyle=orthogonalEdgeStyle;rounded=0;orthogonalLoop=1;jettySize=auto;html=1;exitX=0.5;exitY=1;exitDx=0;exitDy=0;entryX=0.5;entryY=0;entryDx=0;entryDy=0;" edge="1" parent="WIyWlLk6GJQsqaUBKTNV-1" source="zkfFHV4jXpPFQw0GAbJ--0" target="gjeJiGYiuu_HesW52Vty-8">
          <mxGeometry relative="1" as="geometry" />
        </mxCell>
        <mxCell id="zkfFHV4jXpPFQw0GAbJ--0" value="LogBinningTransformer" style="swimlane;fontStyle=2;align=center;verticalAlign=top;childLayout=stackLayout;horizontal=1;startSize=26;horizontalStack=0;resizeParent=1;resizeLast=0;collapsible=1;marginBottom=0;rounded=0;shadow=0;strokeWidth=1;" parent="WIyWlLk6GJQsqaUBKTNV-1" vertex="1">
          <mxGeometry x="-10" y="340" width="400" height="100" as="geometry">
            <mxRectangle x="230" y="140" width="160" height="26" as="alternateBounds" />
          </mxGeometry>
        </mxCell>
        <mxCell id="zkfFHV4jXpPFQw0GAbJ--1" value="+Int MaxLabels" style="text;align=left;verticalAlign=top;spacingLeft=4;spacingRight=4;overflow=hidden;rotatable=0;points=[[0,0.5],[1,0.5]];portConstraint=eastwest;" parent="zkfFHV4jXpPFQw0GAbJ--0" vertex="1">
          <mxGeometry y="26" width="400" height="26" as="geometry" />
        </mxCell>
        <mxCell id="zkfFHV4jXpPFQw0GAbJ--4" value="" style="line;html=1;strokeWidth=0.5;align=left;verticalAlign=middle;spacingTop=-1;spacingLeft=3;spacingRight=3;rotatable=0;labelPosition=right;points=[];portConstraint=eastwest;" parent="zkfFHV4jXpPFQw0GAbJ--0" vertex="1">
          <mxGeometry y="52" width="400" height="8" as="geometry" />
        </mxCell>
        <mxCell id="zkfFHV4jXpPFQw0GAbJ--5" value="+IList&lt;ChartEntry&gt; Transform(IEnumerable, DataTime, DateTime)" style="text;align=left;verticalAlign=top;spacingLeft=4;spacingRight=4;overflow=hidden;rotatable=0;points=[[0,0.5],[1,0.5]];portConstraint=eastwest;" parent="zkfFHV4jXpPFQw0GAbJ--0" vertex="1">
          <mxGeometry y="60" width="400" height="26" as="geometry" />
        </mxCell>
        <mxCell id="gjeJiGYiuu_HesW52Vty-0" value="HistoricalDataPage" style="swimlane;fontStyle=2;align=center;verticalAlign=top;childLayout=stackLayout;horizontal=1;startSize=26;horizontalStack=0;resizeParent=1;resizeLast=0;collapsible=1;marginBottom=0;rounded=0;shadow=0;strokeWidth=1;" vertex="1" parent="WIyWlLk6GJQsqaUBKTNV-1">
          <mxGeometry x="460" y="80" width="400" height="120" as="geometry">
            <mxRectangle x="230" y="140" width="160" height="26" as="alternateBounds" />
          </mxGeometry>
        </mxCell>
        <mxCell id="gjeJiGYiuu_HesW52Vty-1" value="- HistoricalDataViewModel" style="text;align=left;verticalAlign=top;spacingLeft=4;spacingRight=4;overflow=hidden;rotatable=0;points=[[0,0.5],[1,0.5]];portConstraint=eastwest;" vertex="1" parent="gjeJiGYiuu_HesW52Vty-0">
          <mxGeometry y="26" width="400" height="26" as="geometry" />
        </mxCell>
        <mxCell id="gjeJiGYiuu_HesW52Vty-2" value="" style="line;html=1;strokeWidth=0.5;align=left;verticalAlign=middle;spacingTop=-1;spacingLeft=3;spacingRight=3;rotatable=0;labelPosition=right;points=[];portConstraint=eastwest;" vertex="1" parent="gjeJiGYiuu_HesW52Vty-0">
          <mxGeometry y="52" width="400" height="8" as="geometry" />
        </mxCell>
        <mxCell id="gjeJiGYiuu_HesW52Vty-3" value="+ ctor()&#xa;+ ctor(HistoricalDataViewModel vm)&#xa;#OnAppearing()" style="text;align=left;verticalAlign=top;spacingLeft=4;spacingRight=4;overflow=hidden;rotatable=0;points=[[0,0.5],[1,0.5]];portConstraint=eastwest;fontSize=11;" vertex="1" parent="gjeJiGYiuu_HesW52Vty-0">
          <mxGeometry y="60" width="400" height="60" as="geometry" />
        </mxCell>
        <mxCell id="gjeJiGYiuu_HesW52Vty-46" style="edgeStyle=orthogonalEdgeStyle;rounded=0;orthogonalLoop=1;jettySize=auto;html=1;exitX=0.25;exitY=1;exitDx=0;exitDy=0;entryX=0.75;entryY=0;entryDx=0;entryDy=0;" edge="1" parent="WIyWlLk6GJQsqaUBKTNV-1" source="gjeJiGYiuu_HesW52Vty-4" target="gjeJiGYiuu_HesW52Vty-8">
          <mxGeometry relative="1" as="geometry" />
        </mxCell>
        <mxCell id="gjeJiGYiuu_HesW52Vty-48" style="edgeStyle=orthogonalEdgeStyle;rounded=0;orthogonalLoop=1;jettySize=auto;html=1;exitX=0.5;exitY=1;exitDx=0;exitDy=0;entryX=0.5;entryY=0;entryDx=0;entryDy=0;" edge="1" parent="WIyWlLk6GJQsqaUBKTNV-1" source="gjeJiGYiuu_HesW52Vty-4" target="gjeJiGYiuu_HesW52Vty-13">
          <mxGeometry relative="1" as="geometry" />
        </mxCell>
        <mxCell id="gjeJiGYiuu_HesW52Vty-4" value="HistoricalDataViewModel" style="swimlane;fontStyle=2;align=center;verticalAlign=top;childLayout=stackLayout;horizontal=1;startSize=26;horizontalStack=0;resizeParent=1;resizeLast=0;collapsible=1;marginBottom=0;rounded=0;shadow=0;strokeWidth=1;" vertex="1" parent="WIyWlLk6GJQsqaUBKTNV-1">
          <mxGeometry x="460" y="250" width="400" height="340" as="geometry">
            <mxRectangle x="230" y="140" width="160" height="26" as="alternateBounds" />
          </mxGeometry>
        </mxCell>
        <mxCell id="gjeJiGYiuu_HesW52Vty-5" value="- IEnviromentalDataService _dataservice&#xa;- IChartTransformer _transformer&#xa;+ ObservableCollection&lt;ChartEntry&gt; ChartData&#xa;+ ICommand LoadDataCommand&#xa;+ String[] SensorTypes&#xa;+ String[] MetricTypes&#xa;+ String SelectedSensorType&#xa;+ String SelectedMetric&#xa;+ DateTime StartData&#xa;+ DateTime EndDate&#xa;+ DateTime MaxDate&#xa;+ bool IsBusy&#xa;+ Bool NoData&#xa;+ Chart Chart&#xa;&#xa;" style="text;align=left;verticalAlign=top;spacingLeft=4;spacingRight=4;overflow=hidden;rotatable=0;points=[[0,0.5],[1,0.5]];portConstraint=eastwest;" vertex="1" parent="gjeJiGYiuu_HesW52Vty-4">
          <mxGeometry y="26" width="400" height="214" as="geometry" />
        </mxCell>
        <mxCell id="gjeJiGYiuu_HesW52Vty-6" value="" style="line;html=1;strokeWidth=0.5;align=left;verticalAlign=middle;spacingTop=-1;spacingLeft=3;spacingRight=3;rotatable=0;labelPosition=right;points=[];portConstraint=eastwest;" vertex="1" parent="gjeJiGYiuu_HesW52Vty-4">
          <mxGeometry y="240" width="400" height="20" as="geometry" />
        </mxCell>
        <mxCell id="gjeJiGYiuu_HesW52Vty-7" value="+ ctor(IEnviromentalDataService, IChartTransformer)&#xa;- UpdateMetricTypes()&#xa;- UpdateMaxDate()&#xa;- LoadDataAsync&#xa;" style="text;align=left;verticalAlign=top;spacingLeft=4;spacingRight=4;overflow=hidden;rotatable=0;points=[[0,0.5],[1,0.5]];portConstraint=eastwest;fontSize=11;" vertex="1" parent="gjeJiGYiuu_HesW52Vty-4">
          <mxGeometry y="260" width="400" height="70" as="geometry" />
        </mxCell>
        <mxCell id="gjeJiGYiuu_HesW52Vty-8" value="&lt;interface&gt;&#xa;IChartInterface" style="swimlane;fontStyle=2;align=center;verticalAlign=top;childLayout=stackLayout;horizontal=1;startSize=46;horizontalStack=0;resizeParent=1;resizeLast=0;collapsible=1;marginBottom=0;rounded=0;shadow=0;strokeWidth=1;fontSize=11;" vertex="1" parent="WIyWlLk6GJQsqaUBKTNV-1">
          <mxGeometry x="-10" y="660" width="400" height="116" as="geometry">
            <mxRectangle x="-30" y="484" width="160" height="26" as="alternateBounds" />
          </mxGeometry>
        </mxCell>
        <mxCell id="gjeJiGYiuu_HesW52Vty-9" value="&#xa;" style="text;align=left;verticalAlign=top;spacingLeft=4;spacingRight=4;overflow=hidden;rotatable=0;points=[[0,0.5],[1,0.5]];portConstraint=eastwest;" vertex="1" parent="gjeJiGYiuu_HesW52Vty-8">
          <mxGeometry y="46" width="400" height="14" as="geometry" />
        </mxCell>
        <mxCell id="gjeJiGYiuu_HesW52Vty-10" value="" style="line;html=1;strokeWidth=0.5;align=left;verticalAlign=middle;spacingTop=-1;spacingLeft=3;spacingRight=3;rotatable=0;labelPosition=right;points=[];portConstraint=eastwest;" vertex="1" parent="gjeJiGYiuu_HesW52Vty-8">
          <mxGeometry y="60" width="400" height="10" as="geometry" />
        </mxCell>
        <mxCell id="gjeJiGYiuu_HesW52Vty-11" value="+IList&lt;ChartEntry&gt; Transform(IEnumerable, DataTime, DateTime)" style="text;align=left;verticalAlign=top;spacingLeft=4;spacingRight=4;overflow=hidden;rotatable=0;points=[[0,0.5],[1,0.5]];portConstraint=eastwest;" vertex="1" parent="gjeJiGYiuu_HesW52Vty-8">
          <mxGeometry y="70" width="400" height="26" as="geometry" />
        </mxCell>
        <mxCell id="gjeJiGYiuu_HesW52Vty-13" value="Chart" style="swimlane;fontStyle=2;align=center;verticalAlign=top;childLayout=stackLayout;horizontal=1;startSize=30;horizontalStack=0;resizeParent=1;resizeLast=0;collapsible=1;marginBottom=0;rounded=0;shadow=0;strokeWidth=1;fontSize=11;" vertex="1" parent="WIyWlLk6GJQsqaUBKTNV-1">
          <mxGeometry x="590" y="690" width="140" height="70" as="geometry">
            <mxRectangle x="-30" y="484" width="160" height="26" as="alternateBounds" />
          </mxGeometry>
        </mxCell>
        <mxCell id="gjeJiGYiuu_HesW52Vty-14" value="&#xa;" style="text;align=left;verticalAlign=top;spacingLeft=4;spacingRight=4;overflow=hidden;rotatable=0;points=[[0,0.5],[1,0.5]];portConstraint=eastwest;" vertex="1" parent="gjeJiGYiuu_HesW52Vty-13">
          <mxGeometry y="30" width="140" height="14" as="geometry" />
        </mxCell>
        <mxCell id="gjeJiGYiuu_HesW52Vty-15" value="" style="line;html=1;strokeWidth=0.5;align=left;verticalAlign=middle;spacingTop=-1;spacingLeft=3;spacingRight=3;rotatable=0;labelPosition=right;points=[];portConstraint=eastwest;" vertex="1" parent="gjeJiGYiuu_HesW52Vty-13">
          <mxGeometry y="44" width="140" height="10" as="geometry" />
        </mxCell>
        <mxCell id="gjeJiGYiuu_HesW52Vty-17" value="&lt;&lt;interface&gt;&gt;&#xa;IEnvironmentalDataService" style="swimlane;fontStyle=2;align=center;verticalAlign=top;childLayout=stackLayout;horizontal=1;startSize=40;horizontalStack=0;resizeParent=1;resizeLast=0;collapsible=1;marginBottom=0;rounded=0;shadow=0;strokeWidth=1;" vertex="1" parent="WIyWlLk6GJQsqaUBKTNV-1">
          <mxGeometry x="960" y="670" width="510" height="180" as="geometry">
            <mxRectangle x="230" y="140" width="160" height="26" as="alternateBounds" />
          </mxGeometry>
        </mxCell>
        <mxCell id="gjeJiGYiuu_HesW52Vty-18" value="&#xa;" style="text;align=left;verticalAlign=top;spacingLeft=4;spacingRight=4;overflow=hidden;rotatable=0;points=[[0,0.5],[1,0.5]];portConstraint=eastwest;" vertex="1" parent="gjeJiGYiuu_HesW52Vty-17">
          <mxGeometry y="40" width="510" height="20" as="geometry" />
        </mxCell>
        <mxCell id="gjeJiGYiuu_HesW52Vty-19" value="" style="line;html=1;strokeWidth=0.5;align=left;verticalAlign=middle;spacingTop=-1;spacingLeft=3;spacingRight=3;rotatable=0;labelPosition=right;points=[];portConstraint=eastwest;" vertex="1" parent="gjeJiGYiuu_HesW52Vty-17">
          <mxGeometry y="60" width="510" height="20" as="geometry" />
        </mxCell>
        <mxCell id="gjeJiGYiuu_HesW52Vty-20" value="+ Task&lt;List&lt;AirQualityRecord&gt;&gt; GetAirQualityAsync(DateTime, DateTime, String)&#xa;+ Task&lt;List&lt;WeatherRecord&gt;&gt; GetWeatherAsync(DateTime, DateTime, String)&#xa;+ Task&lt;List&lt;WaterQualityRecord&gt;&gt; GetWaterQualityAsync(DateTime, DateTime, String)&#xa;+ Task&lt;List&lt;WaterQualityRecord&gt;&gt; GetWaterQualityAsync(Int, String)&#xa;+ Task&lt;List&lt;WaterQualityRecord&gt;&gt;  GetHistoricalWaterQualityAsync(DateTime, DateTime, String)&#xa;" style="text;align=left;verticalAlign=top;spacingLeft=4;spacingTop=4;spacingRight=4;overflow=hidden;rotatable=0;points=[[0,0.5],[1,0.5]];portConstraint=eastwest;fontSize=11;spacingTop=4;spacingBottom=3;" vertex="1" parent="gjeJiGYiuu_HesW52Vty-17">
          <mxGeometry y="80" width="510" height="100" as="geometry" />
        </mxCell>
        <mxCell id="gjeJiGYiuu_HesW52Vty-22" value="AirQualityRecord" style="swimlane;fontStyle=2;align=center;verticalAlign=top;childLayout=stackLayout;horizontal=1;startSize=40;horizontalStack=0;resizeParent=1;resizeLast=0;collapsible=1;marginBottom=0;rounded=0;shadow=0;strokeWidth=1;" vertex="1" parent="WIyWlLk6GJQsqaUBKTNV-1">
          <mxGeometry x="1680" y="502.5" width="160" height="200" as="geometry">
            <mxRectangle x="230" y="140" width="160" height="26" as="alternateBounds" />
          </mxGeometry>
        </mxCell>
        <mxCell id="gjeJiGYiuu_HesW52Vty-23" value="&#xa;" style="text;align=left;verticalAlign=top;spacingLeft=4;spacingRight=4;overflow=hidden;rotatable=0;points=[[0,0.5],[1,0.5]];portConstraint=eastwest;" vertex="1" parent="gjeJiGYiuu_HesW52Vty-22">
          <mxGeometry y="40" width="160" height="20" as="geometry" />
        </mxCell>
        <mxCell id="gjeJiGYiuu_HesW52Vty-24" value="" style="line;html=1;strokeWidth=0.5;align=left;verticalAlign=middle;spacingTop=-1;spacingLeft=3;spacingRight=3;rotatable=0;labelPosition=right;points=[];portConstraint=eastwest;" vertex="1" parent="gjeJiGYiuu_HesW52Vty-22">
          <mxGeometry y="60" width="160" height="10" as="geometry" />
        </mxCell>
        <mxCell id="gjeJiGYiuu_HesW52Vty-25" value="+ DateTime Timestamp&#xa;+ double? NO2&#xa;+ double? SO2&#xa;+ double? PM25&#xa;+ double? PM10&#xa;+ double? Pm25&#xa;+ double? Pm10&#xa;+ String Category" style="text;align=left;verticalAlign=top;spacingLeft=4;spacingTop=4;spacingRight=4;overflow=hidden;rotatable=0;points=[[0,0.5],[1,0.5]];portConstraint=eastwest;fontSize=11;spacingTop=4;spacingBottom=3;" vertex="1" parent="gjeJiGYiuu_HesW52Vty-22">
          <mxGeometry y="70" width="160" height="120" as="geometry" />
        </mxCell>
        <mxCell id="gjeJiGYiuu_HesW52Vty-52" style="edgeStyle=orthogonalEdgeStyle;rounded=0;orthogonalLoop=1;jettySize=auto;html=1;exitX=0.25;exitY=1;exitDx=0;exitDy=0;entryX=0.5;entryY=0;entryDx=0;entryDy=0;" edge="1" parent="WIyWlLk6GJQsqaUBKTNV-1" source="gjeJiGYiuu_HesW52Vty-26" target="gjeJiGYiuu_HesW52Vty-17">
          <mxGeometry relative="1" as="geometry" />
        </mxCell>
        <mxCell id="gjeJiGYiuu_HesW52Vty-54" style="edgeStyle=orthogonalEdgeStyle;rounded=0;orthogonalLoop=1;jettySize=auto;html=1;exitX=1.004;exitY=0.342;exitDx=0;exitDy=0;exitPerimeter=0;dashed=1;" edge="1" parent="WIyWlLk6GJQsqaUBKTNV-1" source="gjeJiGYiuu_HesW52Vty-29" target="gjeJiGYiuu_HesW52Vty-22">
          <mxGeometry relative="1" as="geometry" />
        </mxCell>
        <mxCell id="gjeJiGYiuu_HesW52Vty-26" value="&#xa;IEnvironmentalDataApiService" style="swimlane;fontStyle=2;align=center;verticalAlign=top;childLayout=stackLayout;horizontal=1;startSize=40;horizontalStack=0;resizeParent=1;resizeLast=0;collapsible=1;marginBottom=0;rounded=0;shadow=0;strokeWidth=1;" vertex="1" parent="WIyWlLk6GJQsqaUBKTNV-1">
          <mxGeometry x="1170" y="168" width="510" height="310" as="geometry">
            <mxRectangle x="230" y="140" width="160" height="26" as="alternateBounds" />
          </mxGeometry>
        </mxCell>
        <mxCell id="gjeJiGYiuu_HesW52Vty-27" value="- IAirQualityApi _airApi&#xa;- IWeatherApi _weatherApi&#xa;- IWaterQualityApi _waterApi&#xa;- ApiKeyProvider _key" style="text;align=left;verticalAlign=top;spacingLeft=4;spacingRight=4;overflow=hidden;rotatable=0;points=[[0,0.5],[1,0.5]];portConstraint=eastwest;" vertex="1" parent="gjeJiGYiuu_HesW52Vty-26">
          <mxGeometry y="40" width="510" height="80" as="geometry" />
        </mxCell>
        <mxCell id="gjeJiGYiuu_HesW52Vty-28" value="" style="line;html=1;strokeWidth=0.5;align=left;verticalAlign=middle;spacingTop=-1;spacingLeft=3;spacingRight=3;rotatable=0;labelPosition=right;points=[];portConstraint=eastwest;" vertex="1" parent="gjeJiGYiuu_HesW52Vty-26">
          <mxGeometry y="120" width="510" height="30" as="geometry" />
        </mxCell>
        <mxCell id="gjeJiGYiuu_HesW52Vty-29" value="+ Task&lt;List&lt;AirQualityRecord&gt;&gt; GetAirQualityAsync(DateTime, DateTime, String)&#xa;+ Task&lt;List&lt;WeatherRecord&gt;&gt; GetWeatherAsync(DateTime, DateTime, String)&#xa;+ Task&lt;List&lt;WaterQualityRecord&gt;&gt; GetWaterQualityAsync(DateTime, DateTime, String)&#xa;+ Task&lt;List&lt;WaterQualityRecord&gt;&gt; GetWaterQualityAsync(Int, String)&#xa;+ Task&lt;List&lt;WaterQualityRecord&gt;&gt;  GetHistoricalWaterQualityAsync(DateTime, DateTime, String)&#xa;" style="text;align=left;verticalAlign=top;spacingLeft=4;spacingTop=4;spacingRight=4;overflow=hidden;rotatable=0;points=[[0,0.5],[1,0.5]];portConstraint=eastwest;fontSize=11;spacingTop=4;spacingBottom=3;" vertex="1" parent="gjeJiGYiuu_HesW52Vty-26">
          <mxGeometry y="150" width="510" height="120" as="geometry" />
        </mxCell>
        <mxCell id="gjeJiGYiuu_HesW52Vty-56" style="edgeStyle=orthogonalEdgeStyle;rounded=0;orthogonalLoop=1;jettySize=auto;html=1;exitX=0.5;exitY=0;exitDx=0;exitDy=0;entryX=0.5;entryY=1;entryDx=0;entryDy=0;dashed=1;" edge="1" parent="WIyWlLk6GJQsqaUBKTNV-1" source="gjeJiGYiuu_HesW52Vty-30" target="gjeJiGYiuu_HesW52Vty-34">
          <mxGeometry relative="1" as="geometry" />
        </mxCell>
        <mxCell id="gjeJiGYiuu_HesW52Vty-60" style="edgeStyle=orthogonalEdgeStyle;rounded=0;orthogonalLoop=1;jettySize=auto;html=1;exitX=0.25;exitY=0;exitDx=0;exitDy=0;entryX=0.5;entryY=1;entryDx=0;entryDy=0;dashed=1;" edge="1" parent="WIyWlLk6GJQsqaUBKTNV-1" source="gjeJiGYiuu_HesW52Vty-30" target="gjeJiGYiuu_HesW52Vty-22">
          <mxGeometry relative="1" as="geometry" />
        </mxCell>
        <mxCell id="gjeJiGYiuu_HesW52Vty-30" value="&#xa;SqlDataService" style="swimlane;fontStyle=2;align=center;verticalAlign=top;childLayout=stackLayout;horizontal=1;startSize=40;horizontalStack=0;resizeParent=1;resizeLast=0;collapsible=1;marginBottom=0;rounded=0;shadow=0;strokeWidth=1;" vertex="1" parent="WIyWlLk6GJQsqaUBKTNV-1">
          <mxGeometry x="1670" y="820" width="510" height="260" as="geometry">
            <mxRectangle x="230" y="140" width="160" height="26" as="alternateBounds" />
          </mxGeometry>
        </mxCell>
        <mxCell id="gjeJiGYiuu_HesW52Vty-31" value="- SQLiteAsyncConnection _db&#xa;- IFileSystemService _fileSystem&#xa;- const String FileName" style="text;align=left;verticalAlign=top;spacingLeft=4;spacingRight=4;overflow=hidden;rotatable=0;points=[[0,0.5],[1,0.5]];portConstraint=eastwest;" vertex="1" parent="gjeJiGYiuu_HesW52Vty-30">
          <mxGeometry y="40" width="510" height="60" as="geometry" />
        </mxCell>
        <mxCell id="gjeJiGYiuu_HesW52Vty-32" value="" style="line;html=1;strokeWidth=0.5;align=left;verticalAlign=middle;spacingTop=-1;spacingLeft=3;spacingRight=3;rotatable=0;labelPosition=right;points=[];portConstraint=eastwest;" vertex="1" parent="gjeJiGYiuu_HesW52Vty-30">
          <mxGeometry y="100" width="510" height="30" as="geometry" />
        </mxCell>
        <mxCell id="gjeJiGYiuu_HesW52Vty-33" value="+ Task&lt;List&lt;AirQualityRecord&gt;&gt; GetAirQualityAsync(DateTime, DateTime, String)&#xa;+ Task&lt;List&lt;WeatherRecord&gt;&gt; GetWeatherAsync(DateTime, DateTime, String)&#xa;+ Task&lt;List&lt;WaterQualityRecord&gt;&gt; GetWaterQualityAsync(DateTime, DateTime, String)&#xa;+ Task&lt;List&lt;WaterQualityRecord&gt;&gt; GetWaterQualityAsync(Int, String)&#xa;+ Task&lt;List&lt;WaterQualityRecord&gt;&gt; GetHistoricalWaterQualityAsync(DateTime, DateTime, String&#xa;- Task CopyBudledDbAsync(String)&#xa;- Task LogTableCounts()&#xa;- bool TryParseTimestamp(String, DateTime)" style="text;align=left;verticalAlign=top;spacingLeft=4;spacingTop=4;spacingRight=4;overflow=hidden;rotatable=0;points=[[0,0.5],[1,0.5]];portConstraint=eastwest;fontSize=11;spacingTop=4;spacingBottom=3;" vertex="1" parent="gjeJiGYiuu_HesW52Vty-30">
          <mxGeometry y="130" width="510" height="120" as="geometry" />
        </mxCell>
        <mxCell id="gjeJiGYiuu_HesW52Vty-34" value="WeatherRecord" style="swimlane;fontStyle=2;align=center;verticalAlign=top;childLayout=stackLayout;horizontal=1;startSize=40;horizontalStack=0;resizeParent=1;resizeLast=0;collapsible=1;marginBottom=0;rounded=0;shadow=0;strokeWidth=1;" vertex="1" parent="WIyWlLk6GJQsqaUBKTNV-1">
          <mxGeometry x="1908" y="485" width="160" height="235" as="geometry">
            <mxRectangle x="230" y="140" width="160" height="26" as="alternateBounds" />
          </mxGeometry>
        </mxCell>
        <mxCell id="gjeJiGYiuu_HesW52Vty-35" value="&#xa;" style="text;align=left;verticalAlign=top;spacingLeft=4;spacingRight=4;overflow=hidden;rotatable=0;points=[[0,0.5],[1,0.5]];portConstraint=eastwest;" vertex="1" parent="gjeJiGYiuu_HesW52Vty-34">
          <mxGeometry y="40" width="160" height="20" as="geometry" />
        </mxCell>
        <mxCell id="gjeJiGYiuu_HesW52Vty-36" value="" style="line;html=1;strokeWidth=0.5;align=left;verticalAlign=middle;spacingTop=-1;spacingLeft=3;spacingRight=3;rotatable=0;labelPosition=right;points=[];portConstraint=eastwest;" vertex="1" parent="gjeJiGYiuu_HesW52Vty-34">
          <mxGeometry y="60" width="160" height="10" as="geometry" />
        </mxCell>
        <mxCell id="gjeJiGYiuu_HesW52Vty-37" value="+ DateTime Timestamp&#xa;+ double Temperature&#xa;+ double Humidity&#xa;+ double WindSpeed&#xa;+ double  CloudCover&#xa;+ double Sunshine&#xa;+ double GobalRadiation&#xa;+ double MaxTemp&#xa;+ double MeanTemp&#xa;+ double Pressure&#xa;+ double SnowDepth" style="text;align=left;verticalAlign=top;spacingLeft=4;spacingTop=4;spacingRight=4;overflow=hidden;rotatable=0;points=[[0,0.5],[1,0.5]];portConstraint=eastwest;fontSize=11;spacingTop=4;spacingBottom=3;" vertex="1" parent="gjeJiGYiuu_HesW52Vty-34">
          <mxGeometry y="70" width="160" height="160" as="geometry" />
        </mxCell>
        <mxCell id="gjeJiGYiuu_HesW52Vty-38" value="WaterQualityRecord" style="swimlane;fontStyle=2;align=center;verticalAlign=top;childLayout=stackLayout;horizontal=1;startSize=40;horizontalStack=0;resizeParent=1;resizeLast=0;collapsible=1;marginBottom=0;rounded=0;shadow=0;strokeWidth=1;" vertex="1" parent="WIyWlLk6GJQsqaUBKTNV-1">
          <mxGeometry x="2200" y="510" width="160" height="170" as="geometry">
            <mxRectangle x="230" y="140" width="160" height="26" as="alternateBounds" />
          </mxGeometry>
        </mxCell>
        <mxCell id="gjeJiGYiuu_HesW52Vty-39" value="&#xa;" style="text;align=left;verticalAlign=top;spacingLeft=4;spacingRight=4;overflow=hidden;rotatable=0;points=[[0,0.5],[1,0.5]];portConstraint=eastwest;" vertex="1" parent="gjeJiGYiuu_HesW52Vty-38">
          <mxGeometry y="40" width="160" height="20" as="geometry" />
        </mxCell>
        <mxCell id="gjeJiGYiuu_HesW52Vty-40" value="" style="line;html=1;strokeWidth=0.5;align=left;verticalAlign=middle;spacingTop=-1;spacingLeft=3;spacingRight=3;rotatable=0;labelPosition=right;points=[];portConstraint=eastwest;" vertex="1" parent="gjeJiGYiuu_HesW52Vty-38">
          <mxGeometry y="60" width="160" height="10" as="geometry" />
        </mxCell>
        <mxCell id="gjeJiGYiuu_HesW52Vty-41" value="+ DateTime Timestamp&#xa;+ double? Nitrate&#xa;+ double? PH&#xa;+ double? DissolvedOxygen&#xa;+ double? Temperature" style="text;align=left;verticalAlign=top;spacingLeft=4;spacingTop=4;spacingRight=4;overflow=hidden;rotatable=0;points=[[0,0.5],[1,0.5]];portConstraint=eastwest;fontSize=11;spacingTop=4;spacingBottom=3;" vertex="1" parent="gjeJiGYiuu_HesW52Vty-38">
          <mxGeometry y="70" width="160" height="100" as="geometry" />
        </mxCell>
        <mxCell id="gjeJiGYiuu_HesW52Vty-42" value="" style="endArrow=classic;html=1;rounded=0;entryX=0.492;entryY=0.988;entryDx=0;entryDy=0;entryPerimeter=0;" edge="1" parent="WIyWlLk6GJQsqaUBKTNV-1" source="gjeJiGYiuu_HesW52Vty-4" target="gjeJiGYiuu_HesW52Vty-3">
          <mxGeometry width="50" height="50" relative="1" as="geometry">
            <mxPoint x="760" y="300" as="sourcePoint" />
            <mxPoint x="670" y="210" as="targetPoint" />
          </mxGeometry>
        </mxCell>
        <mxCell id="gjeJiGYiuu_HesW52Vty-43" value="Contains" style="text;html=1;align=center;verticalAlign=middle;resizable=0;points=[];autosize=1;strokeColor=none;fillColor=none;" vertex="1" parent="WIyWlLk6GJQsqaUBKTNV-1">
          <mxGeometry x="660" y="208" width="70" height="30" as="geometry" />
        </mxCell>
        <mxCell id="gjeJiGYiuu_HesW52Vty-45" value="Implements&lt;br&gt;&lt;div&gt;&lt;br&gt;&lt;/div&gt;" style="text;html=1;align=center;verticalAlign=middle;resizable=0;points=[];autosize=1;strokeColor=none;fillColor=none;" vertex="1" parent="WIyWlLk6GJQsqaUBKTNV-1">
          <mxGeometry x="185" y="513" width="90" height="40" as="geometry" />
        </mxCell>
        <mxCell id="gjeJiGYiuu_HesW52Vty-47" value="Uses" style="text;html=1;align=center;verticalAlign=middle;resizable=0;points=[];autosize=1;strokeColor=none;fillColor=none;" vertex="1" parent="WIyWlLk6GJQsqaUBKTNV-1">
          <mxGeometry x="364" y="600" width="50" height="30" as="geometry" />
        </mxCell>
        <mxCell id="gjeJiGYiuu_HesW52Vty-49" value="Creates" style="text;html=1;align=center;verticalAlign=middle;resizable=0;points=[];autosize=1;strokeColor=none;fillColor=none;" vertex="1" parent="WIyWlLk6GJQsqaUBKTNV-1">
          <mxGeometry x="660" y="640" width="70" height="30" as="geometry" />
        </mxCell>
        <mxCell id="gjeJiGYiuu_HesW52Vty-50" style="edgeStyle=orthogonalEdgeStyle;rounded=0;orthogonalLoop=1;jettySize=auto;html=1;exitX=1;exitY=0.5;exitDx=0;exitDy=0;entryX=0.099;entryY=0.013;entryDx=0;entryDy=0;entryPerimeter=0;" edge="1" parent="WIyWlLk6GJQsqaUBKTNV-1" source="gjeJiGYiuu_HesW52Vty-5" target="gjeJiGYiuu_HesW52Vty-17">
          <mxGeometry relative="1" as="geometry" />
        </mxCell>
        <mxCell id="gjeJiGYiuu_HesW52Vty-51" value="Implements" style="text;html=1;align=center;verticalAlign=middle;resizable=0;points=[];autosize=1;strokeColor=none;fillColor=none;" vertex="1" parent="WIyWlLk6GJQsqaUBKTNV-1">
          <mxGeometry x="920" y="448" width="90" height="30" as="geometry" />
        </mxCell>
        <mxCell id="gjeJiGYiuu_HesW52Vty-53" value="Implements" style="text;html=1;align=center;verticalAlign=middle;resizable=0;points=[];autosize=1;strokeColor=none;fillColor=none;" vertex="1" parent="WIyWlLk6GJQsqaUBKTNV-1">
          <mxGeometry x="1285" y="518" width="90" height="30" as="geometry" />
        </mxCell>
        <mxCell id="gjeJiGYiuu_HesW52Vty-55" value="Creates" style="text;html=1;align=center;verticalAlign=middle;resizable=0;points=[];autosize=1;strokeColor=none;fillColor=none;" vertex="1" parent="WIyWlLk6GJQsqaUBKTNV-1">
          <mxGeometry x="1750" y="330" width="70" height="30" as="geometry" />
        </mxCell>
        <mxCell id="gjeJiGYiuu_HesW52Vty-57" value="Creates&lt;div&gt;&lt;br&gt;&lt;/div&gt;" style="text;html=1;align=center;verticalAlign=middle;resizable=0;points=[];autosize=1;strokeColor=none;fillColor=none;" vertex="1" parent="WIyWlLk6GJQsqaUBKTNV-1">
          <mxGeometry x="1908" y="740" width="70" height="40" as="geometry" />
        </mxCell>
        <mxCell id="gjeJiGYiuu_HesW52Vty-58" style="edgeStyle=orthogonalEdgeStyle;rounded=0;orthogonalLoop=1;jettySize=auto;html=1;exitX=0.75;exitY=0;exitDx=0;exitDy=0;entryX=0.5;entryY=1;entryDx=0;entryDy=0;entryPerimeter=0;dashed=1;" edge="1" parent="WIyWlLk6GJQsqaUBKTNV-1" source="gjeJiGYiuu_HesW52Vty-30" target="gjeJiGYiuu_HesW52Vty-41">
          <mxGeometry relative="1" as="geometry" />
        </mxCell>
        <mxCell id="gjeJiGYiuu_HesW52Vty-59" value="Creates" style="text;html=1;align=center;verticalAlign=middle;resizable=0;points=[];autosize=1;strokeColor=none;fillColor=none;" vertex="1" parent="WIyWlLk6GJQsqaUBKTNV-1">
          <mxGeometry x="2200" y="720" width="70" height="30" as="geometry" />
        </mxCell>
        <mxCell id="gjeJiGYiuu_HesW52Vty-61" style="edgeStyle=orthogonalEdgeStyle;rounded=0;orthogonalLoop=1;jettySize=auto;html=1;exitX=1;exitY=0.5;exitDx=0;exitDy=0;entryX=0.25;entryY=0;entryDx=0;entryDy=0;dashed=1;" edge="1" parent="WIyWlLk6GJQsqaUBKTNV-1" source="gjeJiGYiuu_HesW52Vty-27" target="gjeJiGYiuu_HesW52Vty-34">
          <mxGeometry relative="1" as="geometry">
            <Array as="points">
              <mxPoint x="1680" y="300" />
              <mxPoint x="1948" y="300" />
            </Array>
          </mxGeometry>
        </mxCell>
        <mxCell id="gjeJiGYiuu_HesW52Vty-62" value="Creates" style="text;html=1;align=center;verticalAlign=middle;resizable=0;points=[];autosize=1;strokeColor=none;fillColor=none;" vertex="1" parent="WIyWlLk6GJQsqaUBKTNV-1">
          <mxGeometry x="1870" y="260" width="70" height="30" as="geometry" />
        </mxCell>
        <mxCell id="gjeJiGYiuu_HesW52Vty-63" style="edgeStyle=orthogonalEdgeStyle;rounded=0;orthogonalLoop=1;jettySize=auto;html=1;exitX=1;exitY=0.5;exitDx=0;exitDy=0;entryX=0.5;entryY=0;entryDx=0;entryDy=0;dashed=1;" edge="1" parent="WIyWlLk6GJQsqaUBKTNV-1" source="gjeJiGYiuu_HesW52Vty-27" target="gjeJiGYiuu_HesW52Vty-38">
          <mxGeometry relative="1" as="geometry" />
        </mxCell>
        <mxCell id="gjeJiGYiuu_HesW52Vty-64" value="Creates" style="text;html=1;align=center;verticalAlign=middle;resizable=0;points=[];autosize=1;strokeColor=none;fillColor=none;" vertex="1" parent="WIyWlLk6GJQsqaUBKTNV-1">
          <mxGeometry x="1950" y="208" width="70" height="30" as="geometry" />
        </mxCell>
        <mxCell id="gjeJiGYiuu_HesW52Vty-65" value="Creates" style="text;html=1;align=center;verticalAlign=middle;resizable=0;points=[];autosize=1;strokeColor=none;fillColor=none;" vertex="1" parent="WIyWlLk6GJQsqaUBKTNV-1">
          <mxGeometry x="1680" y="740" width="70" height="30" as="geometry" />
        </mxCell>
        <mxCell id="gjeJiGYiuu_HesW52Vty-67" style="edgeStyle=orthogonalEdgeStyle;rounded=0;orthogonalLoop=1;jettySize=auto;html=1;exitX=0;exitY=0.5;exitDx=0;exitDy=0;entryX=0.346;entryY=1.005;entryDx=0;entryDy=0;entryPerimeter=0;" edge="1" parent="WIyWlLk6GJQsqaUBKTNV-1" source="gjeJiGYiuu_HesW52Vty-30" target="gjeJiGYiuu_HesW52Vty-20">
          <mxGeometry relative="1" as="geometry" />
        </mxCell>
        <mxCell id="gjeJiGYiuu_HesW52Vty-68" value="Uses" style="text;html=1;align=center;verticalAlign=middle;resizable=0;points=[];autosize=1;strokeColor=none;fillColor=none;" vertex="1" parent="WIyWlLk6GJQsqaUBKTNV-1">
          <mxGeometry x="1350" y="910" width="50" height="30" as="geometry" />
        </mxCell>
      </root>
    </mxGraphModel>
  </diagram>
</mxfile>
